<?xml version="1.0" standalone="no"?><!DOCTYPE svg PUBLIC "-//W3C//DTD SVG 1.1//EN" "http://www.w3.org/Graphics/SVG/1.1/DTD/svg11.dtd"><svg t="1589447554113" class="icon" viewBox="0 0 1024 1024" version="1.1" xmlns="http://www.w3.org/2000/svg" p-id="2176" xmlns:xlink="http://www.w3.org/1999/xlink" width="200" height="200"><defs><style type="text/css"></style></defs><path d="M159.215484 284.738065h715.47871c13.212903 0 23.783226-10.570323 23.783225-23.783226s-10.570323-23.783226-23.783225-23.783226H159.215484c-13.212903 0-23.783226 10.570323-23.783226 23.783226s10.570323 23.783226 23.783226 23.783226" p-id="2177"></path><path d="M357.409032 356.087742v413.563871c0 13.212903 10.570323 23.783226 23.783226 23.783226s23.783226-10.570323 23.783226-23.783226V356.087742c0-13.212903-10.570323-23.783226-23.783226-23.783226-12.552258 0-23.783226 10.570323-23.783226 23.783226" p-id="2178"></path><path d="M500.769032 356.087742v413.563871c0 13.212903 10.570323 23.783226 23.783226 23.783226s23.783226-10.570323 23.783226-23.783226V356.087742c0-13.212903-10.570323-23.783226-23.783226-23.783226s-23.783226 10.570323-23.783226 23.783226" p-id="2179"></path><path d="M627.612903 356.087742v413.563871c0 13.212903 10.570323 23.783226 23.783226 23.783226s23.783226-10.570323 23.783226-23.783226V356.087742c0-13.212903-10.570323-23.783226-23.783226-23.783226S627.612903 342.874839 627.612903 356.087742" p-id="2180"></path><path d="M755.117419 276.810323v540.407742c0 13.212903-10.570323 23.783226-23.783225 23.783225h-429.419355c-13.212903 0-23.783226-10.570323-23.783226-23.783225V276.810323c0-13.212903-10.570323-23.783226-23.783226-23.783226s-23.783226 10.570323-23.783226 23.783226v540.407742c0 39.63871 31.710968 71.349677 71.349678 71.349677h429.419355c39.63871 0 71.349677-31.710968 71.349677-71.349677V276.810323c0-13.212903-10.570323-23.783226-23.783226-23.783226s-23.783226 10.570323-23.783226 23.783226z" p-id="2181"></path><path d="M389.780645 245.099355v-47.566452c0-21.80129 17.837419-39.63871 39.63871-39.638709h175.070968c21.80129 0 39.63871 17.837419 39.638709 39.638709v47.566452c0 13.212903 10.570323 23.783226 23.783226 23.783226s23.783226-10.570323 23.783226-23.783226v-47.566452c0-48.227097-38.978065-87.205161-87.205161-87.205161H429.419355c-48.227097 0-87.205161 38.978065-87.205161 87.205161v47.566452c0 13.212903 10.570323 23.783226 23.783225 23.783226 12.552258 0 23.783226-10.570323 23.783226-23.783226z" p-id="2182"></path></svg>