<?xml version="1.0" standalone="no"?><!DOCTYPE svg PUBLIC "-//W3C//DTD SVG 1.1//EN" "http://www.w3.org/Graphics/SVG/1.1/DTD/svg11.dtd"><svg t="1589447432348" class="icon" viewBox="0 0 1025 1024" version="1.1" xmlns="http://www.w3.org/2000/svg" p-id="1425" xmlns:xlink="http://www.w3.org/1999/xlink" width="200.1953125" height="200"><defs><style type="text/css"></style></defs><path d="M212.992 894.976c-16.896 0-30.208-13.824-30.208-30.208 0-16.896 13.824-30.208 30.208-30.208h624.64c16.896 0 30.208 13.824 30.208 30.208 0 16.896-13.824 30.208-30.208 30.208h-624.64z m606.72-675.84L729.6 129.024c-11.264-11.264-29.696-11.264-40.96 0l-91.136 91.136 131.072 131.072 91.136-91.136c11.264-11.264 11.264-29.184 0-40.96z m-249.344 28.16L266.752 550.912c-8.192 8.192-15.36 26.112-15.36 26.112l-47.104 149.504c-3.584 11.264 7.168 21.504 18.432 18.432l148.48-47.104s17.92-6.656 26.624-15.872L701.44 378.368 570.368 247.296z" fill="#2C2C2C" p-id="1426"></path></svg>